<?xml version="1.0" encoding="UTF-8" standalone="no"?>
<svg
   viewBox="0 0 750 500"
   version="1.1"
   id="svg66"
   sodipodi:docname="about.svg"
   inkscape:version="1.3 (0e150ed6c4, 2023-07-21)"
   xmlns:inkscape="http://www.inkscape.org/namespaces/inkscape"
   xmlns:sodipodi="http://sodipodi.sourceforge.net/DTD/sodipodi-0.dtd"
   xmlns="http://www.w3.org/2000/svg"
   xmlns:svg="http://www.w3.org/2000/svg">
  <defs
     id="defs66" />
  <sodipodi:namedview
     id="namedview66"
     pagecolor="#505050"
     bordercolor="#eeeeee"
     borderopacity="1"
     inkscape:showpageshadow="0"
     inkscape:pageopacity="0"
     inkscape:pagecheckerboard="0"
     inkscape:deskcolor="#505050"
     inkscape:zoom="6.907019"
     inkscape:cx="636.38163"
     inkscape:cy="205.58797"
     inkscape:window-width="1350"
     inkscape:window-height="1212"
     inkscape:window-x="1972"
     inkscape:window-y="60"
     inkscape:window-maximized="0"
     inkscape:current-layer="freepik--Plant--inject-75" />
  <g
     id="freepik--background-complete--inject-75">
    <path
       d="M208.14,147H81.5V60.39H208.14ZM82.5,146H207.14V61.39H82.5Z"
       style="fill:#64ffda;fill-opacity:1"
       id="path1" />
    <path
       d="M91.4,66a2.52,2.52,0,1,1-2.52-2.52A2.52,2.52,0,0,1,91.4,66Z"
       style="fill:#a6a6a6"
       id="path2" />
    <path
       d="M101.7,66a2.53,2.53,0,1,1-2.52-2.52A2.52,2.52,0,0,1,101.7,66Z"
       style="fill:#ebebeb"
       id="path3" />
    <path
       d="M112,66a2.52,2.52,0,1,1-2.52-2.52A2.52,2.52,0,0,1,112,66Z"
       style="fill:#64FFDA"
       id="path4" />
    <rect
       x="82"
       y="70.41"
       width="125.64"
       height="1"
       style="fill:#64ffda;fill-opacity:1"
       id="rect4" />
    <path
       d="M73.84,151.67a2.79,2.79,0,0,1,2.93,0q.36.23.75.42c.25.14.51.27.77.4a2.78,2.78,0,0,1,1.63,2.41l.11,3.6,11.71-.37-.11-3.59A2.79,2.79,0,0,1,93.1,152a15.21,15.21,0,0,0,1.49-.91,2.76,2.76,0,0,1,2.9-.19l3.16,1.7,5.54-10.33L103,140.6a2.76,2.76,0,0,1-1.45-2.52,17,17,0,0,0-.06-1.75,2.78,2.78,0,0,1,1.29-2.62l3-1.89-6.17-10-3.07,1.9a2.77,2.77,0,0,1-2.91,0q-.36-.22-.75-.42c-.25-.14-.51-.27-.77-.39a2.79,2.79,0,0,1-1.63-2.43l-.11-3.59-11.71.36.11,3.58a2.78,2.78,0,0,1-1.46,2.53c-.51.28-1,.59-1.49.92a2.78,2.78,0,0,1-2.91.19l-3.16-1.69-5.54,10.32,3.16,1.7a2.75,2.75,0,0,1,1.45,2.53A17.06,17.06,0,0,0,69,139.1a2.8,2.8,0,0,1-1.29,2.62l-3,1.89,6.17,9.95Zm2.94-18.49a9.59,9.59,0,1,1,3.93,13A9.61,9.61,0,0,1,76.78,133.18Z"
       style="fill:#64ffda;fill-opacity:1"
       id="path5" />
    <path
       d="M653.36,259.52a2.77,2.77,0,0,1,2.92,0l.75.43.78.39a2.78,2.78,0,0,1,1.63,2.41l.11,3.6,11.71-.37-.11-3.59a2.77,2.77,0,0,1,1.47-2.52,17.37,17.37,0,0,0,1.48-.92,2.8,2.8,0,0,1,2.91-.19l3.16,1.7,5.54-10.33-3.16-1.69a2.77,2.77,0,0,1-1.45-2.53,16.86,16.86,0,0,0-.06-1.74,2.8,2.8,0,0,1,1.29-2.63l3-1.89-6.17-10-3.07,1.91a2.77,2.77,0,0,1-2.91,0l-.75-.42c-.25-.14-.51-.27-.77-.39a2.77,2.77,0,0,1-1.63-2.42l-.11-3.6-11.71.36.11,3.59a2.76,2.76,0,0,1-1.46,2.52,14.28,14.28,0,0,0-1.49.93,2.78,2.78,0,0,1-2.91.18l-3.16-1.69L643.81,241l3.16,1.69a2.79,2.79,0,0,1,1.45,2.53,17.06,17.06,0,0,0,.06,1.75,2.79,2.79,0,0,1-1.3,2.62l-3,1.89,6.17,10ZM656.3,241a9.59,9.59,0,1,1,3.92,13A9.59,9.59,0,0,1,656.3,241Z"
       style="fill:#64ffda;fill-opacity:1"
       id="path6" />
    <path
       d="M97.46,182.31a2,2,0,0,1,1,1.82c0,.2,0,.4,0,.6s0,.41,0,.61a1.93,1.93,0,0,1-1,1.8l-2.19,1.26,4.11,7.11,2.18-1.26a1.93,1.93,0,0,1,2,.08c.34.22.7.42,1.06.61a1.94,1.94,0,0,1,1.08,1.73v2.51H114v-2.51a1.94,1.94,0,0,1,1.08-1.73c.36-.19.71-.39,1-.61a1.94,1.94,0,0,1,2-.08l2.18,1.26,4.1-7.11-2.19-1.26a1.94,1.94,0,0,1-1-1.81c0-.2,0-.4,0-.6s0-.4,0-.6a1.94,1.94,0,0,1,1-1.81l2.18-1.26-4.1-7.11-2.17,1.26a2,2,0,0,1-2.05-.07,11.27,11.27,0,0,0-1.06-.62,1.93,1.93,0,0,1-1.08-1.73v-2.51h-8.21v2.51a1.93,1.93,0,0,1-1.08,1.73,10.13,10.13,0,0,0-1.06.62,2,2,0,0,1-2,.07L99.39,174l-4.11,7.11ZM109.85,178a6.73,6.73,0,1,1-6.72,6.73A6.74,6.74,0,0,1,109.85,178Z"
       style="fill:#64ffda;fill-opacity:1"
       id="path7" />
    <path
       d="M91.66,285c0-1.13.15-4.14.15-5.42,0-5.49-2-8-7.07-8.12-2.4-.15-3.83-1.58-3.83-3.61s1.43-3.46,3.83-3.61c5.12-.23,7.07-2.64,7.07-8.2,0-1.28-.15-4.29-.15-5.42,0-7.29,3.09-12,14.75-14.51a3.25,3.25,0,0,1,2,6.16c-7.3,2.26-8.35,4.59-8.35,9.71,0,1.5.15,4,.15,5.56,0,5.87-2.86,8.73-7.83,10.31,5,1.65,7.83,4.44,7.83,10.3,0,1.58-.15,4.06-.15,5.57,0,5.11,1,7.45,8.35,9.7a3.25,3.25,0,0,1-2,6.17C94.75,297,91.66,292.34,91.66,285Z"
       style="fill:#64ffda;fill-opacity:1"
       id="path8" />
    <path
       d="M135.74,250.59c0,1.13-.15,4.14-.15,5.42,0,5.56,2,8,7.15,8.2,2.33.15,3.76,1.58,3.76,3.61s-1.43,3.46-3.76,3.61c-5.12.15-7.15,2.63-7.15,8.12,0,1.28.15,4.29.15,5.42,0,7.37-3.08,12-14.74,14.59a3.24,3.24,0,0,1-2-6.17c7.22-2.25,8.28-4.59,8.28-9.7,0-1.51-.15-4-.15-5.57,0-5.86,2.85-8.72,7.82-10.3-5-1.66-7.82-4.44-7.82-10.31,0-1.58.15-4.06.15-5.56,0-5.12-1.06-7.45-8.28-9.71a3.11,3.11,0,0,1-2.18-3.08,3.16,3.16,0,0,1,4.14-3.08C132.66,238.63,135.74,243.3,135.74,250.59Z"
       style="fill:#64ffda;fill-opacity:1"
       id="path9" />
    <path
       d="M621.19,131.26a4,4,0,0,1-2.81,6.91,4.27,4.27,0,0,1-3-1.15l-18-18.26c-.2-.06-.26-.19-.32-.38a.84.84,0,0,0-.2-.13,2.11,2.11,0,0,1-.19-.51.34.34,0,0,1-.19-.26c-.06-.13-.06-.32-.13-.38s-.13-.26-.13-.32v-.45c0-.13-.06-.19-.06-.39s.06-.25.06-.32v-.44c0-.13.13-.2.13-.26s.07-.32.13-.51.06-.07.06-.13.2-.45.32-.58a.13.13,0,0,1,.13-.13,1.19,1.19,0,0,1,.39-.44l18-18.26a4.17,4.17,0,0,1,5.76,0,4,4,0,0,1,0,5.76L606,115.94Z"
       style="fill:#64ffda;fill-opacity:1"
       id="path10" />
    <path
       d="M637.53,133.31,653.22,96a3.55,3.55,0,0,1,4.68-1.86,3.45,3.45,0,0,1,1.79,4.55L644,136.06a3.54,3.54,0,0,1-3.27,2.11,3.1,3.1,0,0,1-1.28-.25A3.46,3.46,0,0,1,637.53,133.31Z"
       style="fill:#64ffda;fill-opacity:1"
       id="path11" />
    <path
       d="M690.7,118.25a.06.06,0,0,1-.06.06,3.18,3.18,0,0,1-.45.45l-18,18.26a4.19,4.19,0,0,1-5.77,0,4.06,4.06,0,0,1,0-5.76l15.18-15.32-15.18-15.31a4.06,4.06,0,0,1,0-5.76,4.18,4.18,0,0,1,5.77,0l18,18.26a3.15,3.15,0,0,1,.45.44c.06,0,.06.13.06.13a5.27,5.27,0,0,1,.32.58c0,.06.07.06.07.13a2.52,2.52,0,0,0,.19.57c0,.07.06.07.06.2v.44c0,.07.07.26.07.32s-.07.26-.07.32v.52c0,.06-.06.06-.06.13a4.11,4.11,0,0,0-.19.57c0,.07-.07.07-.07.19S690.83,118,690.7,118.25Z"
       style="fill:#64ffda;fill-opacity:1"
       id="path12" />
  </g>
  <g
     id="freepik--Floor--inject-75">
    <path
       d="M59.52,348.2c202.12-.62,428.84-.62,631,0-202.12.61-428.84.61-631,0Z"
       style="fill:#263238"
       id="path13" />
  </g>
  <g
     id="freepik--Plant--inject-75">
    <path
       d="M691,199.77c-23.36,31.64-47.72,68.35-53.65,108-.07.6.89.8,1,.2a235.06,235.06,0,0,1,10.33-31.76c15.36-4.23,30.43-7.7,38.5-22.94,8.22-15.67,7.18-36.1,5.61-53.17C692.74,199.21,691.5,199.16,691,199.77Z"
       style="fill:#005d4a;fill-opacity:1"
       id="path14" />
    <path
       d="M649,275.93c10.5-23.55,24-47.19,41.09-66.55.11-.13.29.05.19.18-11.21,13.79-19.73,28.81-28,44.09,7.73-7.85,16.21-14.88,23.54-23.21.14-.16.37.08.23.24-7.27,8.73-15.22,18.21-24.69,24.67q-3.82,7-7.71,14.1c.64-.36,1.29-.67,1.95-1,.11-.05.21.12.1.18-.72.36-1.44.75-2.19,1.06-1.23,2.23-2.44,4.46-3.71,6.68C649.44,276.86,648.75,276.43,649,275.93Z"
       style="fill:#008a72;fill-opacity:1"
       id="path15" />
    <path
       d="M656.78,267.71a137.12,137.12,0,0,0,17.93-12c.15-.12.37.09.22.22A94.19,94.19,0,0,1,657,268.15C656.75,268.3,656.49,267.88,656.78,267.71Z"
       style="fill:#008a72;fill-opacity:1"
       id="path16" />
    <path
       d="M634.68,301.89c.05.48.86.48.85,0,.13-13.06,0-26.18.21-39.31,3.35-6.75,10.53-10.49,15.53-15.9a70.15,70.15,0,0,0,9.32-13c6.17-11,9.52-23.48,10.8-36,1.38-14-3.92-60.08-9.81-58.48-3.05.83-12.94,23.67-15.56,31.22a217,217,0,0,0-9.3,38.28C631.94,239.39,632.34,271,634.68,301.89Z"
       style="fill:#005d4a;fill-opacity:1"
       id="path17" />
    <path
       d="M634.59,245.54l.06-.06c.71-16.53,4.44-33.22,7.92-49.25,3.76-17.27,8.15-33.54,17-48.94a.26.26,0,0,1,.45.26,181.49,181.49,0,0,0-13.69,37.56c.6-.93,1.32-1.81,1.94-2.69.24-.35.82,0,.58.33a24.77,24.77,0,0,1-2.78,3.92.23.23,0,0,1-.12.06c-3.06,12.34-5.25,25-7.13,37.57.14-.16.27-.34.41-.49a.13.13,0,0,1,.2.15c-.24.42-.5.83-.75,1.25-1,6.39-1.83,12.77-2.71,19.1,11.38-9.73,21.11-21.2,26.59-35.33a.06.06,0,0,1,.11,0c-5.37,14.65-13.84,27.68-26.88,36.58l-.72,5.1c-.05.35-.61.26-.61-.08,0-1.51.08-3,.14-4.53A.34.34,0,0,1,634.59,245.54Z"
       style="fill:#008a72;fill-opacity:1"
       id="path18" />
    <path
       d="M640,221.58c8.7-13,16.82-25.59,23.19-39.94.07-.16.35,0,.28.12-5.36,14.26-12.87,28.71-23,40.16C640.18,222.15,639.77,221.85,640,221.58Z"
       style="fill:#008a72;fill-opacity:1"
       id="path19" />
    <path
       d="M651.51,178.43c3.6-6.37,7.4-12.58,10.8-19.08.09-.18.34,0,.26.15a99,99,0,0,1-10.5,19.26C651.83,179.09,651.3,178.8,651.51,178.43Z"
       style="fill:#008a72;fill-opacity:1"
       id="path20" />
    <path
       d="M650.1,181.21a.06.06,0,0,1,0,.11A.06.06,0,0,1,650.1,181.21Z"
       style="fill:#263238"
       id="path21" />
    <path
       d="M625.84,264.11a133.09,133.09,0,0,1-3.05,25.74c.13.93.26,1.86.4,2.82a122.69,122.69,0,0,0,4.6-28.69.88.88,0,0,0,0-.89v0A190.7,190.7,0,0,0,625,224.19c-4.05-24-12.89-47.05-29.63-65.05a1.2,1.2,0,0,0-1.85.38c-6.76,17.18-4.4,37.69,1.36,54.83a100.42,100.42,0,0,0,13.27,26C613.85,248.46,621.17,255.29,625.84,264.11Z"
       style="fill:#005d4a;fill-opacity:1"
       id="path22" />
    <path
       d="M597.3,167.18c15.87,25.76,26.91,56.29,28.26,86.72,0,.54-.88.68-1,.13-.37-2.74-.79-5.45-1.23-8.14h0c-6.56-6.29-13.3-12.93-18-20.78-.09-.14.11-.3.22-.18,5.71,6.53,11,13.22,17.49,19q-1.69-10.1-4.07-19.87c-.43-.49-.84-1-1.26-1.48-.27-.32.18-.79.47-.47l.38.42a231.14,231.14,0,0,0-8.29-26.34c-4-4.82-8.56-9-11.5-14.79a.12.12,0,0,1,.21-.12,121.6,121.6,0,0,0,7.34,9.74c1.07,1.23,2.24,2.38,3.35,3.57a204.42,204.42,0,0,0-13-27.08A.35.35,0,0,1,597.3,167.18Z"
       style="fill:#008a72;fill-opacity:1"
       id="path23" />
    <path
       d="M600.51,199c5.13,6.91,11,13.49,15.74,20.63.14.2-.16.41-.33.25-6.13-5.74-11.31-13.59-15.76-20.67C600,198.93,600.36,198.75,600.51,199Z"
       style="fill:#008a72;fill-opacity:1"
       id="path24" />
    <path
       d="M617,221.18l.22.22c.15.15-.09.38-.24.23l-.22-.22C616.58,221.26,616.82,221,617,221.18Z"
       style="fill:#263238"
       id="path25" />
    <path
       d="M572.44,216.69c1.27,13.25,8.24,29.08,16.74,39.29a41.76,41.76,0,0,0,13.58,10.6c5.88,2.91,12,6.26,18.13,8.65A118.94,118.94,0,0,1,627.3,298c.2-.66.39-1.35.59-2-3.91-33.54-25.61-62.22-53.38-80.63A1.35,1.35,0,0,0,572.44,216.69Z"
       style="fill:#005d4a;fill-opacity:1"
       id="path26" />
    <path
       d="M582,226.61c-.2-.18.07-.53.28-.37,14.72,10.9,28,26.8,35.39,43.61.2.46-.43.86-.69.4-1.29-2.26-2.61-4.46-4-6.62h0c-6.34-1.19-12.34-5.65-17-9.89-.13-.11.06-.3.18-.19a39.19,39.19,0,0,0,8,5.64c2.59,1.31,5.37,2.14,8.06,3.19-2.35-3.73-4.8-7.31-7.35-10.78-6.83-2.32-13.32-6.51-19-10.7-.18-.13,0-.43.18-.31a188.32,188.32,0,0,0,17.7,9.46,157.46,157.46,0,0,0-12.5-14.57c-2.15-1.14-4.34-2.28-6.43-3.5-.17-.1,0-.39.14-.32a22.74,22.74,0,0,1,4.93,2.42C587.38,231.55,584.79,229.05,582,226.61Z"
       style="fill:#008a72;fill-opacity:1"
       id="path27" />
    <path
       d="M582.62,238.19a8,8,0,0,1,1.07.76c.1.09,0,.22-.14.18a9.33,9.33,0,0,1-1.11-.63C582.25,238.37,582.43,238.07,582.62,238.19Z"
       style="fill:#263238"
       id="path28" />
    <polygon
       points="603.06 286.1 663.3 286.1 657.37 348.19 608.99 348.19 603.06 286.1"
       style="fill:#5f6884;fill-opacity:1"
       id="polygon28" />
    <polygon
       points="604.2 298.02 603.06 286.1 663.3 286.1 662.57 293.79 604.2 298.02"
       style="fill:#374951;fill-opacity:1"
       id="polygon29" />
    <rect
       x="598.99"
       y="275.41"
       width="68.39"
       height="15.12"
       style="fill:#5f6884;fill-opacity:1"
       id="rect29" />
  </g>
  <g
     id="freepik--Device--inject-75">
    <rect
       x="143.25"
       y="41.93"
       width="463.51"
       height="310.05"
       style="fill:#ccd6f6;fill-opacity:1"
       id="rect30" />
    <rect
       x="146.62"
       y="45.71"
       width="456.77"
       height="302.49"
       style="fill:#263238"
       id="rect31" />
    <rect
       x="82.88"
       y="424"
       width="584.24"
       height="21.48"
       style="fill:#ccd6f6;fill-opacity:1"
       id="rect32" />
    <polygon
       points="82.88 424 143.25 351.98 606.75 351.98 667.12 424 82.88 424"
       style="fill:#a8b2d1;fill-opacity:1"
       id="polygon32" />
    <polygon
       points="606.73 384.63 145.02 384.63 168.69 351.98 583.06 351.98 606.73 384.63"
       style="fill:#263238"
       id="polygon33" />
    <polygon
       points="598.46 373.22 153.29 373.22 154.25 371.89 597.5 371.89 598.46 373.22"
       style="fill:#37474f"
       id="polygon34" />
    <polygon
       points="589.81 361.3 161.94 361.3 162.9 359.96 588.85 359.96 589.81 361.3"
       style="fill:#37474f"
       id="polygon35" />
    <polygon
       points="303.53 415.9 318.49 392.92 432.22 392.92 448.23 415.9 303.53 415.9"
       style="fill:#263238"
       id="polygon36" />
    <polygon
       points="417.85 432.63 333.9 432.63 331.82 424 419.94 424 417.85 432.63"
       style="fill:#a8b2d1;fill-opacity:1"
       id="polygon37" />
    <rect
       x="172.09"
       y="68.69"
       width="405.83"
       height="256.96"
       style="fill:#37474f"
       id="rect37" />
    <rect
       x="172.09"
       y="68.69"
       width="405.83"
       height="9.89"
       style="fill:#64FFDA"
       id="rect38" />
    <path
       d="M181.39,73.63a1.87,1.87,0,1,1-1.87-1.87A1.86,1.86,0,0,1,181.39,73.63Z"
       style="fill:#c7c7c7"
       id="path38" />
    <path
       d="M189,73.63a1.87,1.87,0,1,1-1.87-1.87A1.86,1.86,0,0,1,189,73.63Z"
       style="fill:#fff"
       id="path39" />
    <path
       d="M196.67,73.63a1.87,1.87,0,1,1-1.87-1.87A1.86,1.86,0,0,1,196.67,73.63Z"
       style="fill:#455a64"
       id="path40" />
    <rect
       x="198.02"
       y="122.51"
       width="11.42"
       height="3.47"
       style="fill:#ebebeb"
       id="rect40" />
    <rect
       x="222.91"
       y="122.51"
       width="253.1"
       height="3.47"
       style="fill:#ebebeb"
       id="rect41" />
    <rect
       x="483.03"
       y="122.51"
       width="21.69"
       height="3.47"
       style="fill:#64FFDA"
       id="rect42" />
    <rect
       x="198.02"
       y="138.92"
       width="11.42"
       height="3.47"
       style="fill:#ebebeb"
       id="rect43" />
    <rect
       x="234.04"
       y="138.92"
       width="85.95"
       height="3.47"
       style="fill:#a6a6a6"
       id="rect44" />
    <rect
       x="480.07"
       y="204.58"
       width="32.51"
       height="3.47"
       style="fill:#a6a6a6"
       id="rect45" />
    <rect
       x="222.91"
       y="188.16"
       width="82.1"
       height="3.47"
       style="fill:#a6a6a6"
       id="rect46" />
    <rect
       x="234.04"
       y="155.34"
       width="57.6"
       height="3.47"
       style="fill:#64FFDA"
       id="rect47" />
    <rect
       x="298.03"
       y="155.34"
       width="214.1"
       height="3.47"
       style="fill:#a6a6a6"
       id="rect48" />
    <rect
       x="222.91"
       y="204.58"
       width="249.73"
       height="3.47"
       style="fill:#64FFDA"
       id="rect49" />
    <rect
       x="325.39"
       y="138.92"
       width="176.91"
       height="3.47"
       style="fill:#ebebeb"
       id="rect50" />
    <rect
       x="198.02"
       y="155.34"
       width="11.42"
       height="3.47"
       style="fill:#ebebeb"
       id="rect51" />
    <rect
       x="198.02"
       y="171.75"
       width="11.42"
       height="3.47"
       style="fill:#a6a6a6"
       id="rect52" />
    <rect
       x="222.91"
       y="171.75"
       width="67.48"
       height="3.47"
       style="fill:#ebebeb"
       id="rect53" />
    <rect
       x="234.04"
       y="220.99"
       width="67.48"
       height="3.47"
       style="fill:#ebebeb"
       id="rect54" />
    <rect
       x="295.06"
       y="237.41"
       width="181.03"
       height="3.47"
       style="fill:#ebebeb"
       id="rect55" />
    <rect
       x="234.04"
       y="237.41"
       width="50.72"
       height="3.47"
       style="fill:#a6a6a6"
       id="rect56" />
    <rect
       x="309.65"
       y="188.16"
       width="195.06"
       height="3.47"
       style="fill:#ebebeb"
       id="rect57" />
    <rect
       x="297.25"
       y="171.75"
       width="194.98"
       height="3.47"
       style="fill:#64FFDA"
       id="rect58" />
    <rect
       x="198.02"
       y="188.16"
       width="11.42"
       height="3.47"
       style="fill:#ebebeb"
       id="rect59" />
    <rect
       x="198.02"
       y="204.58"
       width="11.42"
       height="3.47"
       style="fill:#ebebeb"
       id="rect60" />
    <rect
       x="198.02"
       y="220.99"
       width="11.42"
       height="3.47"
       style="fill:#a6a6a6"
       id="rect61" />
    <rect
       x="198.02"
       y="237.41"
       width="11.42"
       height="3.47"
       style="fill:#ebebeb"
       id="rect62" />
    <rect
       x="198.02"
       y="252.31"
       width="11.42"
       height="3.47"
       style="fill:#ebebeb"
       id="rect63" />
    <rect
       x="222.91"
       y="252.31"
       width="133.88"
       height="3.47"
       style="fill:#ebebeb"
       id="rect64" />
    <path
       d="M202.54,106.11a.63.63,0,0,1-.44,1.08.67.67,0,0,1-.46-.18l-2.83-2.86s0,0-.05-.06a.07.07,0,0,0,0,0,.26.26,0,0,1,0-.08.05.05,0,0,1,0,0s0,0,0-.06,0,0,0,0v-.07s0,0,0-.06,0,0,0,0v-.07s0,0,0,0,0-.05,0-.08,0,0,0,0a.73.73,0,0,1,0-.09,0,0,0,0,1,0,0,.19.19,0,0,1,.06-.07l2.83-2.86a.65.65,0,0,1,.9,0,.63.63,0,0,1,0,.9l-2.38,2.4Z"
       style="fill:#64FFDA"
       id="path64" />
    <path
       d="M205.1,106.43l2.46-5.86a.55.55,0,0,1,.73-.29.54.54,0,0,1,.29.71l-2.47,5.87a.55.55,0,0,1-.51.33.48.48,0,0,1-.2,0A.54.54,0,0,1,205.1,106.43Z"
       style="fill:#64FFDA"
       id="path65" />
    <path
       d="M213.44,104.06h0l-.07.08L210.53,107a.65.65,0,0,1-.9,0,.63.63,0,0,1,0-.9L212,103.7l-2.38-2.4a.63.63,0,0,1,0-.9.65.65,0,0,1,.9,0l2.83,2.86.07.07s0,0,0,0a.9.9,0,0,1,.05.09s0,0,0,0a.47.47,0,0,0,0,.09s0,0,0,0v.07s0,0,0,0,0,0,0,0v.08s0,0,0,0a.92.92,0,0,0,0,.09s0,0,0,0Z"
       style="fill:#64FFDA"
       id="path66" />
    <rect
       x="364.23"
       y="244.68"
       width="1.56"
       height="18.73"
       style="fill:#ebebeb"
       id="rect66" />
  </g>
</svg>
