<?xml version="1.0" encoding="UTF-8" standalone="no"?>
<!-- Uploaded to: SVG Repo, www.svgrepo.com, Generator: SVG Repo Mixer Tools -->

<svg
   width="700.05078"
   height="700.05078"
   viewBox="0 0 14.001016 14.001016"
   fill="none"
   version="1.1"
   id="svg3"
   sodipodi:docname="codepen.svg"
   inkscape:version="1.3 (0e150ed6c4, 2023-07-21)"
   xmlns:inkscape="http://www.inkscape.org/namespaces/inkscape"
   xmlns:sodipodi="http://sodipodi.sourceforge.net/DTD/sodipodi-0.dtd"
   xmlns="http://www.w3.org/2000/svg"
   xmlns:svg="http://www.w3.org/2000/svg">
  <defs
     id="defs3" />
  <sodipodi:namedview
     id="namedview3"
     pagecolor="#505050"
     bordercolor="#eeeeee"
     borderopacity="1"
     inkscape:showpageshadow="0"
     inkscape:pageopacity="0"
     inkscape:pagecheckerboard="0"
     inkscape:deskcolor="#505050"
     showguides="true"
     inkscape:zoom="1.0792217"
     inkscape:cx="494.80101"
     inkscape:cy="592.55664"
     inkscape:window-width="3440"
     inkscape:window-height="1417"
     inkscape:window-x="1912"
     inkscape:window-y="-8"
     inkscape:window-maximized="1"
     inkscape:current-layer="g3" />
  <g
     fill="#000000"
     id="g3"
     transform="translate(30.57832,8.043554)">
    <path
       id="path1"
       style="fill:#a8b2d1;fill-opacity:1"
       d="m -23.578312,-8.043554 a 7.000508,7.000508 0 1 0 0.001,14.001016 7.000508,7.000508 0 0 0 -0.001,-14.001016 z m -0.0045,2.6791016 a 0.372,0.372 0 0 1 0.205508,0.061914 l 3.957968,2.6369922 c 0.002,0 0.002,0.00298 0.005,0.00598 l 0.01801,0.012031 0.02102,0.017969 0.015,0.014023 c 0.006,0.006 0.01201,0.011977 0.01801,0.020977 l 0.01098,0.015 a 0.065,0.065 0 0 1 0.015,0.024023 0.06,0.06 0 0 0 0.01199,0.016992 0.087,0.087 0 0 1 0.01203,0.023984 l 0.009,0.018008 0.009,0.026016 c 0.003,0.006 0.003,0.012008 0.005,0.018008 0.004,0.009 0.006,0.019969 0.006,0.032969 0,0.006 0.003,0.012023 0.003,0.014023 a 0.251,0.251 0 0 1 0.003,0.048008 v 2.63398436 h 0.006 c 0,0.018 -8e-6,0.0329922 -0.003,0.0469922 0,0.006 -0.003,0.012 -0.003,0.015 l -0.006,0.0330078 c -0.002,0.006 -0.002,0.0120078 -0.005,0.0180078 l -0.01,0.0259766 -0.008,0.0180078 c -0.003,0.009 -0.01,0.0180234 -0.01199,0.0240234 a 0.06,0.06 0 0 1 -0.01199,0.0169922 l -0.015,0.0239844 a 0.065,0.065 0 0 1 -0.01199,0.015 c -0.005,0.006 -0.01103,0.015 -0.01703,0.02 l -0.015,0.015 c -0.006,0.006 -0.015,0.0120078 -0.02,0.0180078 -0.007,0.003 -0.01298,0.008992 -0.01898,0.0119922 -0.003,0 -0.003,0.003016 -0.005,0.006016 l -3.96,2.64000024 a 0.377,0.377 0 0 1 -0.413984,0 l -3.959023,-2.63699244 c -0.003,0 -0.003,-0.003016 -0.006,-0.006016 l -0.01801,-0.0119922 c -0.006,-0.006 -0.015,-0.0120078 -0.02,-0.0180078 l -0.01601,-0.0139844 a 0.129,0.129 0 0 1 -0.01699,-0.0210156 c -0.003,-0.006 -0.01,-0.012 -0.01199,-0.015 a 0.064,0.064 0 0 1 -0.015,-0.0239844 0.062,0.062 0 0 0 -0.01199,-0.0170312 l -0.01203,-0.0239844 -0.009,-0.0180078 -0.008,-0.0259766 -0.006,-0.0180078 a 0.106,0.106 0 0 1 -0.006,-0.0330078 c 0,-0.006 -0.003,-0.012 -0.003,-0.015 -0.003,-0.014 -0.003,-0.0319922 -0.003,-0.0469922 V -2.3575384 c 0,-0.018 8e-6,-0.033008 0.003,-0.048008 0,-0.005 0.003,-0.011023 0.003,-0.014023 l 0.006,-0.032969 0.006,-0.018008 0.008,-0.026016 0.01,-0.018008 c 0.002,-0.009 0.008,-0.017984 0.01102,-0.023984 a 0.062,0.062 0 0 1 0.01199,-0.016992 l 0.015,-0.024023 a 0.065,0.065 0 0 1 0.01199,-0.015 c 0.006,-0.006 0.01099,-0.015 0.01699,-0.02 l 0.015,-0.015 c 0.006,-0.006 0.015,-0.011969 0.02,-0.017969 0.007,-0.003 0.01302,-0.010031 0.01902,-0.012031 0.003,0 0.003,-0.00298 0.006,-0.00598 l 3.958007,-2.6369922 a 0.372,0.372 0 0 1 0.205508,-0.061914 z m -0.368515,1.0589062 -2.915,1.945 1.301992,0.87 1.613008,-1.08 z m 0.743007,0 v 1.735 l 1.613008,1.08 1.301992,-0.87 z m -0.37,2.3819922 -1.316992,0.88 1.316992,0.87898436 1.313985,-0.87898436 z m -3.583984,0.2580078 v 1.24398436 l 0.93,-0.62199216 z m 7.167968,0 -0.931992,0.6219922 0.931992,0.62199216 z m -5.569999,1.06898436 -1.301992,0.8730078 2.915,1.94199204 V 0.48343816 Z m 3.969023,0 -1.613008,1.08 V 2.218438 l 2.915,-1.94199204 z" />
  </g>
</svg>
